<?xml version="1.0" encoding="UTF-8"?>
<svg version="1.1" xmlns="http://www.w3.org/2000/svg" width="531" height="470">
<path d="M0 0 C4.7341506 3.76551003 8.97171404 7.79446387 12.76171875 12.5078125 C14.11830225 14.23314397 14.11830225 14.23314397 16.3203125 16.35546875 C23.44816278 23.48331903 29.81685269 31.15845977 35.96484375 39.12890625 C38.15024597 41.96083845 40.38451203 44.74681425 42.64453125 47.51953125 C54.3354746 61.98162732 59.18540657 72.74151778 59.1953125 91.54296875 C59.20755859 92.76628906 59.21980469 93.98960937 59.23242188 95.25 C59.23435547 96.42949219 59.23628906 97.60898438 59.23828125 98.82421875 C59.24239014 99.89736328 59.24649902 100.97050781 59.25073242 102.07617188 C58.98132346 105.36648108 58.42812719 108.62265406 56.0078125 111.04296875 C53.77826456 111.14441744 51.54543625 111.17375071 49.31358337 111.17668152 C48.25117749 111.18007985 48.25117749 111.18007985 47.16730887 111.18354684 C44.77550414 111.18991575 42.38375567 111.18905559 39.99194336 111.18823242 C38.28378729 111.19122249 36.57563191 111.19462466 34.86747742 111.19841003 C30.20958249 111.20727893 25.55170591 111.20958961 20.89380336 111.21022582 C17.97983976 111.21093575 15.06588085 111.21306918 12.15191841 111.21572304 C1.97326486 111.22499241 -8.20537557 111.22905674 -18.3840332 111.22827148 C-27.84669194 111.2276732 -37.30929321 111.23817171 -46.77193743 111.25401515 C-54.90717493 111.26714656 -63.04239381 111.2724529 -71.17764181 111.27181607 C-76.03064483 111.27156233 -80.88359703 111.27434341 -85.73658943 111.28499413 C-90.31579248 111.29476726 -94.89489716 111.294692 -99.47410393 111.28747749 C-101.14283265 111.28644235 -102.81156778 111.28872976 -104.48028564 111.29483795 C-132.58492009 111.39092884 -132.58492009 111.39092884 -144.9921875 106.04296875 C-147.50694118 102.27083823 -147.44015166 100.52261033 -146.9921875 96.04296875 C-144.3633102 90.3007773 -141.68594661 87.74906074 -136.0546875 84.85546875 C-130.58753836 81.80736502 -125.86172363 78.52797519 -121.3046875 74.23046875 C-120.76851807 73.72572021 -120.23234863 73.22097168 -119.67993164 72.70092773 C-117.09152034 70.21090519 -114.62353748 67.65989859 -112.25390625 64.9609375 C-105.5988196 57.5381844 -98.77098593 53.46739605 -89.55273438 49.60302734 C-82.37661905 46.5457872 -76.32397477 42.77382837 -72.1171875 36.04296875 C-67.62669091 29.70344416 -59.84913567 25.5414117 -52.9921875 22.04296875 C-52.0021875 22.04296875 -51.0121875 22.04296875 -49.9921875 22.04296875 C-49.82203125 21.17414063 -49.651875 20.3053125 -49.4765625 19.41015625 C-47.71785064 11.04692008 -45.89457495 4.61203938 -38.875 -0.85546875 C-27.7288312 -7.37667124 -10.74048231 -7.02478021 0 0 Z M-34.7421875 10.29296875 C-37.26779044 13.37981679 -37.50009936 15.17044907 -37.9921875 19.04296875 C-36.89777344 19.48769531 -36.89777344 19.48769531 -35.78125 19.94140625 C-25.66257833 24.66345303 -18.86338185 31.80626493 -11.17578125 39.77734375 C-6.75163508 44.35452332 -2.08492848 48.22577514 3.0078125 52.04296875 C9.01888594 56.69808068 12.75048037 61.13679823 16.0078125 68.04296875 C16.6678125 67.44484375 17.3278125 66.84671875 18.0078125 66.23046875 C23.88004775 61.94863055 29.86366804 60.68083879 37.0078125 60.04296875 C35.56894952 55.71851717 33.40745455 52.85757657 30.4453125 49.41796875 C29.53452869 48.35209843 28.62438498 47.28568085 27.71484375 46.21875 C27.25803223 45.68588379 26.8012207 45.15301758 26.33056641 44.60400391 C24.38516266 42.3081546 22.5138372 39.95417053 20.6328125 37.60546875 C13.8862075 29.33427508 6.56449149 21.57462562 -0.9921875 14.04296875 C-1.90484375 13.06070313 -1.90484375 13.06070313 -2.8359375 12.05859375 C-3.65578125 11.18460938 -3.65578125 11.18460938 -4.4921875 10.29296875 C-5.03875 9.7 -5.5853125 9.10703125 -6.1484375 8.49609375 C-10.11429801 5.37045792 -15.14273829 5.88159725 -19.9921875 5.85546875 C-21.1884375 5.84128906 -22.3846875 5.82710937 -23.6171875 5.8125 C-28.38603334 6.13815035 -31.06107072 7.28114593 -34.7421875 10.29296875 Z M-63.1171875 50.54296875 C-65.2921875 52.92213542 -65.2921875 52.92213542 -64.9921875 56.04296875 C-60.6899536 58.91112469 -57.04320144 58.63343939 -51.9921875 58.04296875 C-47.08729561 56.64058417 -42.29412835 55.11181199 -38.9921875 51.04296875 C-38.91576041 48.9314723 -38.91576041 48.9314723 -39.9921875 47.04296875 C-46.34270167 42.33888418 -57.72083923 45.45410471 -63.1171875 50.54296875 Z M-31.9921875 68.04296875 C-31.9921875 69.36296875 -31.9921875 70.68296875 -31.9921875 72.04296875 C-25.47082154 75.99011131 -18.65601732 76.78073561 -11.2421875 75.29296875 C-7.53903207 74.30152111 -4.19591392 73.20548409 -0.9921875 71.04296875 C-0.02311923 68.45882449 -0.02311923 68.45882449 0.0078125 66.04296875 C-8.55602795 59.00838552 -24.14515473 60.19593598 -31.9921875 68.04296875 Z M-102.9921875 70.04296875 C-103.15906198 72.62651093 -103.15906198 72.62651093 -102.9921875 75.04296875 C-98.41626079 77.72156 -95.28334948 78.59033033 -89.9921875 78.04296875 C-85.59346731 76.84995792 -81.98436625 75.61339063 -78.9921875 72.04296875 C-78.67959169 69.95235644 -78.67959169 69.95235644 -79.9921875 68.04296875 C-87.43410614 64.03578179 -96.6102892 63.66107045 -102.9921875 70.04296875 Z M26.0078125 73.04296875 C20.96016505 77.65169033 19.92185867 81.47845538 19.0078125 88.04296875 C19.0078125 92.33296875 19.0078125 96.62296875 19.0078125 101.04296875 C28.5778125 101.04296875 38.1478125 101.04296875 48.0078125 101.04296875 C48.1109375 97.53671875 48.2140625 94.03046875 48.3203125 90.41796875 C48.36583252 89.32403809 48.41135254 88.23010742 48.45825195 87.10302734 C48.57412603 80.85257278 48.57412603 80.85257278 45.7578125 75.4609375 C39.58697388 70.03515752 33.16626959 68.49469143 26.0078125 73.04296875 Z M-52.4921875 93.54296875 C-60.9943154 96.98291015 -66.38327955 96.53020387 -75.0859375 93.69921875 C-82.98213417 91.9162066 -89.42926221 93.72714887 -96.9921875 96.04296875 C-97.95769531 96.32914062 -98.92320312 96.6153125 -99.91796875 96.91015625 C-102.27910592 97.61148412 -104.63681563 98.32256217 -106.9921875 99.04296875 C-106.9921875 99.37296875 -106.9921875 99.70296875 -106.9921875 100.04296875 C-105.83279411 100.03963783 -105.83279411 100.03963783 -104.64997864 100.03623962 C-97.31067283 100.01607383 -89.97138076 100.00091243 -82.63205433 99.99115658 C-78.86024084 99.98597216 -75.08845054 99.97895681 -71.31665039 99.9675293 C-67.66617803 99.95654053 -64.01572775 99.95065861 -60.3652401 99.94809151 C-58.98322897 99.9462657 -57.60121884 99.94270161 -56.2192173 99.93723869 C-48.32338521 99.90731255 -40.52683891 100.12154793 -32.65960693 100.81468201 C-23.41926198 101.60550186 -14.19731168 100.97177407 -4.9921875 100.04296875 C-5.4871875 98.06296875 -5.4871875 98.06296875 -5.9921875 96.04296875 C-7.9103125 96.07777344 -7.9103125 96.07777344 -9.8671875 96.11328125 C-11.57551495 96.13205408 -13.28384877 96.15025264 -14.9921875 96.16796875 C-15.83136719 96.18472656 -16.67054688 96.20148438 -17.53515625 96.21875 C-23.89911528 96.26808302 -30.00611302 95.98391716 -35.4921875 92.41796875 C-41.52061332 89.10233455 -46.5341129 91.11560503 -52.4921875 93.54296875 Z " fill="#6F615C" transform="translate(298.9921875,108.95703125)"/>
<path d="M0 0 C4.84347524 0.26908196 6.84545048 2.5044181 10 6 C10.66 6.66 11.32 7.32 12 8 C12.93195239 13.12573814 10.18686769 17.5188738 8 22 C8.66386719 21.26394531 9.32773438 20.52789062 10.01171875 19.76953125 C10.89472656 18.79371094 11.77773437 17.81789063 12.6875 16.8125 C13.55761719 15.84957031 14.42773438 14.88664062 15.32421875 13.89453125 C26.46228869 1.84590377 26.46228869 1.84590377 32 0 C35.15464985 0 37.15015919 0.19897511 39.49609375 2.41015625 C40.72935739 3.88797641 41.87183106 5.44047235 43 7 C44.0725 6.38125 45.145 5.7625 46.25 5.125 C46.89453125 4.76019531 47.5390625 4.39539063 48.203125 4.01953125 C49.47636173 3.2971078 50.74125153 2.5598819 52 1.8125 C60.84851662 -1.78220988 71.38926076 -0.40500385 80.13671875 2.77734375 C86.7088853 5.69413386 90.45037398 10.11448947 93.8125 16.375 C97.34213701 27.14968139 95.48515554 36.95718745 90.875 47.25 C85.64744491 56.84685487 77.45506539 63.28602839 67.1015625 66.609375 C59.56348911 68.01050388 51.63743254 68.01011549 45 64 C39.43810074 59.28447671 39.43810074 59.28447671 39 55 C39.85546875 51.8984375 39.85546875 51.8984375 41.1875 48.375 C41.42090088 47.74964355 41.65430176 47.12428711 41.89477539 46.47998047 C43.49449899 42.22243115 45.17491446 37.99708499 46.890625 33.78515625 C48.37325795 30.06291225 49.78189785 26.31439905 51.1875 22.5625 C51.44974365 21.86334473 51.7119873 21.16418945 51.98217773 20.44384766 C53.0296339 17.64083444 54.05365386 14.83903842 55 12 C50.66965806 15.84919283 48.3439244 19.72289646 46 25 C43.02545866 24.67842796 41.40664722 24.37860258 39.1875 22.3125 C37.69589887 19.40780307 37.91618175 17.22479688 38 14 C20.96993379 23.00089717 20.96993379 23.00089717 10 38 C13.49806968 46.604123 19.34007406 54.5614009 26 61 C24.63016497 64.16115776 24.0109362 64.9927092 21 67 C16.94236005 67.52599036 14.81622569 67.54415046 11.375 65.25 C5.3831581 58.29553432 3.00324281 47.52316953 0 39 C-3.94947945 48.24101503 -7.09588707 57.0952722 -9 67 C-14.46827133 67.42888403 -14.46827133 67.42888403 -16.8984375 65.46875 C-17.38570313 64.8190625 -17.87296875 64.169375 -18.375 63.5 C-18.87773438 62.8503125 -19.38046875 62.200625 -19.8984375 61.53125 C-20.26195313 61.0259375 -20.62546875 60.520625 -21 60 C-15.40957992 43.78586066 -15.40957992 43.78586066 -12.5 37 C-7.84901864 26.06269222 -3.92331084 15.00021307 -1.54296875 3.34375 C-1 1 -1 1 0 0 Z M66 6 C67.0209375 6.8353125 67.0209375 6.8353125 68.0625 7.6875 C70 10 70 10 69.8359375 12.25 C68.8209045 15.58917398 67.29957764 18.28222572 65.5625 21.3125 C61.72770502 28.2427336 58.52154187 35.39551024 55.4375 42.6875 C54.98383057 43.7391333 54.53016113 44.7907666 54.06274414 45.87426758 C53.4419397 47.36543091 53.4419397 47.36543091 52.80859375 48.88671875 C52.43532959 49.77576904 52.06206543 50.66481934 51.67749023 51.58081055 C50.94492119 54.19667601 51.08092127 55.48067745 52 58 C61.39371488 57.7801471 68.92838466 55.16014585 75.875 48.6875 C83.29762422 40.65360084 85.49268516 30.98755666 85.3125 20.2890625 C84.77406376 14.62202107 82.47382597 12.26817583 78.3125 8.6875 C74.18872928 6.58671114 70.57326729 6.20325632 66 6 Z M6 24 C7 26 7 26 7 26 Z " fill="#71635E" transform="translate(106,243)"/>
<path d="M0 0 C2 3 2 3 2 6 C2.54785156 5.74605469 3.09570312 5.49210938 3.66015625 5.23046875 C16.35362565 -0.28035455 30.37025894 -3.39402966 43.765625 1.015625 C47.69323415 2.74597029 49.85451302 5.41813703 52.3125 8.8125 C54.07579919 14.42299741 53.36553751 18.85183824 51.0625 24.125 C48.17542927 29.43295724 44.46700037 32.49467956 39 35 C36.55805632 35.66517296 34.54688713 35.89162182 32 36 C34.9226565 43.92489551 38.45574402 50.53631246 43.5234375 57.30859375 C45 60 45 60 44.9140625 62.72265625 C44 65 44 65 41 67 C37.5625 67.4375 37.5625 67.4375 34 67 C30.29230744 63.2565189 28.57257144 59.10647227 26.8125 54.25 C26.42070557 53.19135742 26.42070557 53.19135742 26.02099609 52.11132812 C24.21420534 47.04999017 23.19275422 42.39711824 23 37 C21.68 37 20.36 37 19 37 C18.85304688 37.51304687 18.70609375 38.02609375 18.5546875 38.5546875 C16.79429613 44.56429941 14.91608736 50.53844435 13 56.5 C12.7510498 57.30163574 12.50209961 58.10327148 12.24560547 58.92919922 C11.99955566 59.68475098 11.75350586 60.44030273 11.5 61.21875 C11.2834375 61.89873047 11.066875 62.57871094 10.84375 63.27929688 C10 65 10 65 7 67 C0.47720365 63.29787234 0.47720365 63.29787234 -1 61 C-0.61030873 55.14713685 1.27681737 50.39325773 3.625 45.0625 C3.97965332 44.23854736 4.33430664 43.41459473 4.69970703 42.56567383 C5.78999692 40.03937463 6.89261776 37.51884888 8 35 C8.50950195 33.84032715 8.50950195 33.84032715 9.02929688 32.65722656 C9.35478516 31.91698242 9.68027344 31.17673828 10.015625 30.4140625 C10.32935059 29.69984131 10.64307617 28.98562012 10.96630859 28.24975586 C11.55416154 26.91563608 12.14540988 25.58300505 12.74072266 24.25219727 C14.38028908 20.55751743 15.78396842 16.85470206 17 13 C13.7 14.65 10.4 16.3 7 18 C4.12597273 15.4041044 2.75567052 13.78630702 2 10 C-2.00174442 9.93997383 -5.99813422 9.96071788 -10 10 C-10.79277344 9.9690625 -11.58554687 9.938125 -12.40234375 9.90625 C-14.73193911 9.85005837 -14.73193911 9.85005837 -18 11 C-20.2020847 13.78217351 -21.59443777 16.75849021 -23 20 C-23.66028389 21.33650567 -24.32483129 22.67095168 -25 24 C-24.11248047 23.93039062 -24.11248047 23.93039062 -23.20703125 23.859375 C-19.11990623 23.6726874 -16.61615967 23.67305813 -12.9375 25.625 C-11 28 -11 28 -10.625 31.1875 C-11 34 -11 34 -12 35 C-13.9490625 34.9690625 -13.9490625 34.9690625 -15.9375 34.9375 C-23.67026727 34.85811813 -23.67026727 34.85811813 -31 37 C-33.23880846 40.12431012 -34.14150295 43.43942086 -35.125 47.125 C-35.41375 48.06988281 -35.7025 49.01476562 -36 49.98828125 C-36.70566221 52.31696653 -37.36973019 54.65000309 -38 57 C-37.26136719 56.79503906 -36.52273438 56.59007812 -35.76171875 56.37890625 C-18.2879505 51.73847733 -18.2879505 51.73847733 -12.75 53.86328125 C-11 55 -11 55 -10 57 C-9.875 60.5625 -9.875 60.5625 -10 64 C-11 65 -11 65 -12.94604492 65.09765625 C-14.20058472 65.08025391 -14.20058472 65.08025391 -15.48046875 65.0625 C-16.39763672 65.05476563 -17.31480469 65.04703125 -18.25976562 65.0390625 C-20.19206079 65.01328138 -22.12435256 64.98724503 -24.05664062 64.9609375 C-28.8421753 64.92086324 -33.28858901 65.0434408 -38 66 C-42.35002244 66.55063575 -45.26182419 66.482074 -49.0625 64 C-51.25276703 60.60861879 -51.11529077 59.13086984 -50.51391602 55.2421875 C-49.611728 51.30599046 -48.05217045 47.68976179 -46.4375 44 C-46.10814453 43.22527344 -45.77878906 42.45054687 -45.43945312 41.65234375 C-44.63531413 39.76436524 -43.81892829 37.8816107 -43 36 C-43.50144531 35.56042969 -44.00289063 35.12085938 -44.51953125 34.66796875 C-45.00808594 34.11753906 -45.49664062 33.56710937 -46 33 C-45.6875 30.3125 -45.6875 30.3125 -45 28 C-43.02 27.67 -41.04 27.34 -39 27 C-38.87753906 26.28457031 -38.75507813 25.56914062 -38.62890625 24.83203125 C-37.98864625 21.94887287 -37.06448444 19.41407527 -35.9375 16.6875 C-35.57527344 15.80449219 -35.21304687 14.92148437 -34.83984375 14.01171875 C-34.42412109 13.01591797 -34.42412109 13.01591797 -34 12 C-36.475 11.01 -36.475 11.01 -39 10 C-39.625 6.625 -39.625 6.625 -40 3 C-37.39796116 0.39796116 -36.20741921 0.71263355 -32.58203125 0.62109375 C-31.49212891 0.58693359 -30.40222656 0.55277344 -29.27929688 0.51757812 C-27.56323242 0.47793945 -27.56323242 0.47793945 -25.8125 0.4375 C-0.84226515 -0.23505074 -0.84226515 -0.23505074 0 0 Z M34 8 C30.33246125 14.5404441 26.90338996 21.08310039 24 28 C31.27780111 28.53909638 37.89887691 27.26621884 43.74609375 22.609375 C46.0515669 20.12756254 46.97597156 18.13616113 47.5625 14.8125 C47.2214332 11.99646767 47.2214332 11.99646767 45.5625 10.1875 C41.82315312 8.45463193 38.08031126 8.2528398 34 8 Z " fill="#71635E" transform="translate(310,244)"/>
<path d="M0 0 C2.3941161 2.3941161 2.29598923 3.03786311 2.3125 6.3125 C2.24152682 10.31280631 1.49933025 12.77169843 -1 16 C-4.19026248 15.63189279 -5.23925728 14.78299922 -7.6875 12.5625 C-13.57510877 7.52223939 -20.13633849 7.86543493 -27.5625 8.375 C-29.70955032 8.57039294 -31.85592294 8.77430768 -34 9 C-34.00954991 11.86487432 -34.00954991 11.86487432 -33 15 C-30.78570941 16.70938367 -28.95260182 17.88413419 -26.5 19.125 C-25.86433105 19.46845459 -25.22866211 19.81190918 -24.57373047 20.16577148 C-21.15907534 21.98481361 -17.70767092 23.59800469 -14.125 25.0625 C-8.23033629 27.53054612 -3.52620008 31.71069988 0 37 C0.81021159 43.60795943 0.34445826 49.23369265 -3 55 C-6.9111775 59.65113 -11.03323711 62.5544286 -17.12109375 63.46875 C-28.80732833 63.57886764 -39.44363452 61.02100321 -49 54 C-51.91063802 50.50723437 -52.45992141 47.54881028 -52.3046875 43.00390625 C-51.8448546 39.97962064 -50.55905869 37.59843115 -49 35 C-46.40587545 35.37217633 -45.27289007 35.68028697 -43.54296875 37.70703125 C-43.09566406 38.40183594 -42.64835938 39.09664063 -42.1875 39.8125 C-38.55881421 44.93859283 -34.27742365 47.85378101 -28 49 C-25.31915294 49.14521255 -22.68098674 49.23057256 -20 49.25 C-18.93265625 49.2809375 -18.93265625 49.2809375 -17.84375 49.3125 C-14.71046057 49.33588276 -12.34167885 49.16443295 -9.5 47.796875 C-7.80766751 46.05549697 -7.80766751 46.05549697 -7.4765625 43.50390625 C-7.76819061 40.8821384 -7.76819061 40.8821384 -9.8359375 39.33984375 C-10.67382812 38.87707031 -11.51171875 38.41429687 -12.375 37.9375 C-13.29152344 37.42960937 -14.20804688 36.92171875 -15.15234375 36.3984375 C-17.71848001 35.13824987 -20.26332557 34.06692507 -22.9375 33.0625 C-29.79421297 30.46953418 -38.27105973 26.61586177 -42 20 C-42.8297317 14.63290668 -42.64453232 9.61133081 -40.625 4.5625 C-29.60891968 -6.19129269 -13.52148801 -5.62946413 0 0 Z " fill="#71625D" transform="translate(254,247)"/>
<path d="M0 0 C2.49646958 2.25487575 2.95861614 3.39303676 3.1875 6.75 C3.0946875 7.86375 3.0946875 7.86375 3 9 C0.15057897 9.82145471 -2.29137545 10.08514027 -5.25 10 C-6.42949219 10.00966797 -6.42949219 10.00966797 -7.6328125 10.01953125 C-10 10 -10 10 -12.1171875 9.76171875 C-14.60871204 9.66961959 -15.80407204 9.76423488 -18 11 C-20.85867854 15.11954056 -22.9649896 19.427586 -25 24 C-24.39671875 23.97679687 -23.7934375 23.95359375 -23.171875 23.9296875 C-21.97304688 23.90261719 -21.97304688 23.90261719 -20.75 23.875 C-19.56664062 23.84019531 -19.56664062 23.84019531 -18.359375 23.8046875 C-15.75385683 24.02037609 -14.20013023 24.6078822 -12 26 C-10.64560332 28.70879335 -10.93498549 31.00933268 -11 34 C-15.24733832 34.98142381 -19.47324533 35.30920379 -23.8125 35.5625 C-24.50537109 35.60568359 -25.19824219 35.64886719 -25.91210938 35.69335938 C-27.60788686 35.79861453 -29.30392052 35.89972863 -31 36 C-33.29561809 42.59379663 -35.22089072 49.24947898 -37 56 C-36.45585449 55.90388428 -35.91170898 55.80776855 -35.35107422 55.70874023 C-32.86070437 55.2747921 -30.36800259 54.85604662 -27.875 54.4375 C-26.59109375 54.21030273 -26.59109375 54.21030273 -25.28125 53.97851562 C-20.64756626 53.21217562 -16.58635162 52.57837387 -12 54 C-9.5705484 57.6441774 -9.83820425 59.71241272 -10 64 C-10.5983667 64.02505615 -11.1967334 64.0501123 -11.81323242 64.07592773 C-13.59689375 64.15146741 -15.38049961 64.22832302 -17.1640625 64.30615234 C-19.18607479 64.39399493 -21.20821505 64.47893789 -23.23046875 64.56103516 C-29.70107029 64.83926819 -29.70107029 64.83926819 -36.14453125 65.46484375 C-45.15853845 66.56667234 -45.15853845 66.56667234 -48.8125 63.9375 C-51 61 -51 61 -51.6875 58.3125 C-50.85714906 54.3117182 -49.21883362 51.19688163 -47.32421875 47.59765625 C-45.43342442 43.88857592 -43.62990286 40.14544177 -43 36 C-44.26352052 33.67488528 -44.26352052 33.67488528 -46 32 C-46.0625 29.875 -46.0625 29.875 -45 28 C-44.03707031 27.76796875 -43.07414062 27.5359375 -42.08203125 27.296875 C-38.72344749 26.28430401 -38.72344749 26.28430401 -37.5390625 22.9609375 C-37.23742187 21.77757812 -36.93578125 20.59421875 -36.625 19.375 C-36.30789063 18.18648438 -35.99078125 16.99796875 -35.6640625 15.7734375 C-35.44492187 14.85820312 -35.22578125 13.94296875 -35 13 C-35.65355469 12.41605469 -36.30710937 11.83210937 -36.98046875 11.23046875 C-39 9 -39 9 -39.3125 5.3125 C-39 2 -39 2 -38 1 C-36.13356603 0.8539378 -34.26199007 0.77262697 -32.390625 0.71875 C-30.66972656 0.66267578 -30.66972656 0.66267578 -28.9140625 0.60546875 C-27.10035156 0.55326172 -27.10035156 0.55326172 -25.25 0.5 C-22.880094 0.43089907 -20.51029178 0.35811839 -18.140625 0.28125 C-17.08391602 0.25095703 -16.02720703 0.22066406 -14.93847656 0.18945312 C-2.53487387 -0.61024741 -2.53487387 -0.61024741 0 0 Z " fill="#70615D" transform="translate(461,244)"/>
<path d="M0 0 C5.67152369 0.27665969 9.46294096 2.87933249 14 6 C13.9278125 6.76957031 13.855625 7.53914062 13.78125 8.33203125 C12.71384665 21.54114774 12.90619846 34.75666545 13 48 C13.25579834 47.38705078 13.51159668 46.77410156 13.77514648 46.14257812 C22.46354675 25.44061126 22.46354675 25.44061126 27.8125 15.9375 C28.16046631 15.31488281 28.50843262 14.69226563 28.86694336 14.05078125 C34.76467723 3.87232108 34.76467723 3.87232108 39.5625 2 C42.44514807 2 43.75789458 2.15827055 46 4 C46.75 7.125 46.75 7.125 47 10 C45.9790625 10.680625 45.9790625 10.680625 44.9375 11.375 C40.81361659 15.06017241 38.03342138 19.40412028 35 24 C34.57847656 24.60457031 34.15695312 25.20914062 33.72265625 25.83203125 C26.20137026 37.05064975 21.38520959 50.05173616 17.12890625 62.78125 C16 66 16 66 15 67 C10.88066595 67.44257308 7.05634344 67.2921801 3.0625 66.1875 C-2.60697438 60.17442112 -1.28228253 48.3558252 -1.23046875 40.5859375 C-1.23001053 39.44967926 -1.22955231 38.31342102 -1.2290802 37.14273071 C-1.22608102 34.76457664 -1.21826569 32.38642413 -1.20581055 30.00830078 C-1.18737661 26.3505162 -1.1853024 22.69298277 -1.18554688 19.03515625 C-1.18063749 16.71874779 -1.17481172 14.40234105 -1.16796875 12.0859375 C-1.16685593 10.98816986 -1.1657431 9.89040222 -1.16459656 8.7593689 C-1.15821671 7.75386993 -1.15183685 6.74837097 -1.14526367 5.71240234 C-1.14145187 4.82402679 -1.13764008 3.93565125 -1.13371277 3.02035522 C-1 1 -1 1 0 0 Z " fill="#71625D" transform="translate(372,243)"/>
<path d="M0 0 C0.33 0.66 0.66 1.32 1 2 C1.66 1.01 2.32 0.02 3 -1 C5.375 -0.75 5.375 -0.75 8 0 C9.3125 2.0625 9.3125 2.0625 10 4 C10.226875 3.360625 10.45375 2.72125 10.6875 2.0625 C12 0 12 0 14.625 -0.75 C15.800625 -0.87375 15.800625 -0.87375 17 -1 C17.66 -0.01 18.32 0.98 19 2 C19.495 1.484375 19.99 0.96875 20.5 0.4375 C24.3395619 -1.77024809 26.71800238 -0.96690269 31 0 C33.68088358 4.02132537 33.80264522 7.2751503 33 12 C30.5422681 15.54202539 29.18675879 16.7820239 24.9375 17.5625 C21.28744421 16.86355315 20.14435389 16.01797955 18 13 C17.25 9.75 17.25 9.75 17 7 C16.75765625 7.63808594 16.5153125 8.27617187 16.265625 8.93359375 C15.76289063 10.17302734 15.76289063 10.17302734 15.25 11.4375 C14.92515625 12.26121094 14.6003125 13.08492188 14.265625 13.93359375 C13 16 13 16 10.95703125 16.84765625 C9 17 9 17 7.4375 16 C5.40794136 13.17626624 4.28092344 10.23280677 3 7 C2.67 9.97 2.34 12.94 2 16 C0.2300132 16.19532961 -1.54104279 16.38098882 -3.3125 16.5625 C-4.29863281 16.66691406 -5.28476562 16.77132813 -6.30078125 16.87890625 C-9 17 -9 17 -12 16 C-13.3729863 13.2540274 -13.12412634 11.0410953 -13 8 C-12.67 7.01 -12.34 6.02 -12 5 C-11.65179959 3.33637583 -11.31595508 1.67004829 -11 0 C-6.88825414 -1.37058195 -4.26339405 -0.75640862 0 0 Z M-9 5 C-5 6 -5 6 -5 6 Z M25 5 C23.64381501 6.12534105 23.64381501 6.12534105 23.9375 9.0625 C23.958125 10.031875 23.97875 11.00125 24 12 C24.99 12 25.98 12 27 12 C27 10.02 27 8.04 27 6 C26.34 5.67 25.68 5.34 25 5 Z M-7 10 C-7 10.99 -7 11.98 -7 13 C-6.34 13 -5.68 13 -5 13 C-4.67 12.01 -4.34 11.02 -4 10 C-4.99 10 -5.98 10 -7 10 Z " fill="#847873" transform="translate(333,331)"/>
<path d="M0 0 C1.67542976 0.28604898 3.34385343 0.61781233 5 1 C5.33 2.32 5.66 3.64 6 5 C7.4540625 5.185625 7.4540625 5.185625 8.9375 5.375 C10.4534375 5.684375 10.4534375 5.684375 12 6 C13.54897985 9.0979597 12.83239539 12.26216552 12.5625 15.625 C12.51029297 16.33140625 12.45808594 17.0378125 12.40429688 17.765625 C12.27458793 19.51079987 12.13795046 21.25545725 12 23 C10.68 23 9.36 23 8 23 C6.73762269 20.47524538 6.90143596 18.68799534 6.9375 15.875 C6.94652344 14.96492188 6.95554688 14.05484375 6.96484375 13.1171875 C6.97644531 12.41851562 6.98804688 11.71984375 7 11 C6.01 11.495 6.01 11.495 5 12 C4.53248212 14.35599235 4.53248212 14.35599235 4.375 17.0625 C4.30023438 17.98160156 4.22546875 18.90070313 4.1484375 19.84765625 C4.09945312 20.55792969 4.05046875 21.26820313 4 22 C2.0625 22.5625 2.0625 22.5625 0 23 C-1.62200515 21.37799485 -1.1299075 19.57976969 -1.1328125 17.34375 C-1.13410156 16.40402344 -1.13539063 15.46429688 -1.13671875 14.49609375 C-1.13285156 13.50738281 -1.12898437 12.51867187 -1.125 11.5 C-1.12886719 10.51128906 -1.13273438 9.52257812 -1.13671875 8.50390625 C-1.13542969 7.56417969 -1.13414062 6.62445313 -1.1328125 5.65625 C-1.13168457 4.78806641 -1.13055664 3.91988281 -1.12939453 3.02539062 C-1 1 -1 1 0 0 Z " fill="#7E706C" transform="translate(245,325)"/>
<path d="M0 0 C4.88078528 1.47344461 4.88078528 1.47344461 6.3125 4 C6.625 7.5625 6.625 7.5625 6.3125 11 C5.6525 11.66 4.9925 12.32 4.3125 13 C4.3125 14.32 4.3125 15.64 4.3125 17 C-2.95673077 18.21153846 -2.95673077 18.21153846 -6.0625 17.3125 C-9.20403206 14.77510872 -9.61224186 12.51739971 -10.1875 8.5625 C-9.6875 5 -9.6875 5 -7.125 2 C-3.6875 0 -3.6875 0 0 0 Z M-2.6875 12 C-2.3575 12.66 -2.0275 13.32 -1.6875 14 C-0.6975 13.67 0.2925 13.34 1.3125 13 C-0.0075 12.67 -1.3275 12.34 -2.6875 12 Z " fill="#796B66" transform="translate(206.6875,330)"/>
<path d="M0 0 C0.69222656 0.08765625 1.38445312 0.1753125 2.09765625 0.265625 C3.9375 0.75 3.9375 0.75 5.9375 2.75 C6.85877264 7.77512348 7.07065886 11.71373842 5.9375 16.75 C4.35736783 17.00028811 2.77307694 17.22440946 1.1875 17.4375 C-0.13507813 17.62892578 -0.13507813 17.62892578 -1.484375 17.82421875 C-4.66978223 17.73251763 -5.83993761 16.99304683 -8.0625 14.75 C-8.4375 11.6875 -8.4375 11.6875 -8.0625 8.75 C-7.4025 8.09 -6.7425 7.43 -6.0625 6.75 C-6.38291397 4.14719432 -6.38291397 4.14719432 -7.0625 1.75 C-3.88217735 -0.3702151 -3.51682601 -0.4995865 0 0 Z M-4.0625 5.75 C-0.0625 6.75 -0.0625 6.75 -0.0625 6.75 Z M-2.0625 10.75 C-2.0625 11.74 -2.0625 12.73 -2.0625 13.75 C-1.0725 13.42 -0.0825 13.09 0.9375 12.75 C0.9375 12.09 0.9375 11.43 0.9375 10.75 C-0.0525 10.75 -1.0425 10.75 -2.0625 10.75 Z " fill="#7B6E69" transform="translate(159.0625,330.25)"/>
<path d="M0 0 C2.5986701 2.5986701 2.63249261 4.39842758 3 8 C2.67 8.99 2.34 9.98 2 11 C0.35 11.33 -1.3 11.66 -3 12 C-1.68 12 -0.36 12 1 12 C1 13.32 1 14.64 1 16 C-0.258125 16.185625 -1.51625 16.37125 -2.8125 16.5625 C-3.52019531 16.66691406 -4.22789062 16.77132813 -4.95703125 16.87890625 C-7 17 -7 17 -10 16 C-12.47110515 11.70808052 -12.53427836 7.80850526 -12 3 C-8.35559195 -1.52790091 -5.42268701 -1.43240789 0 0 Z " fill="#7A6C67" transform="translate(271,331)"/>
<path d="M0 0 C1.125 4.75 1.125 4.75 0 7 C0.28241883 9.3400417 0.61250787 11.67504723 1 14 C-0.4375 15.5625 -0.4375 15.5625 -3 17 C-6.05380927 16.96846324 -8.99653222 16.53266629 -12 16 C-12.33 14.68 -12.66 13.36 -13 12 C-10.39417629 11.06934867 -9.35801776 10.85082593 -6.75 11.9375 C-6.1725 12.288125 -5.595 12.63875 -5 13 C-5 12.34 -5 11.68 -5 11 C-7.31 10.34 -9.62 9.68 -12 9 C-12.33 6.69 -12.66 4.38 -13 2 C-8.3683343 -1.61848883 -5.49434694 -1.02436977 0 0 Z " fill="#857874" transform="translate(180,331)"/>
<path d="M0 0 C2.48519147 1.12963249 4.76328526 2.46855725 7.0625 3.9375 C6.7325 5.5875 6.4025 7.2375 6.0625 8.9375 C4.7425 8.9375 3.4225 8.9375 2.0625 8.9375 C2.0625 11.2475 2.0625 13.5575 2.0625 15.9375 C3.7125 15.9375 5.3625 15.9375 7.0625 15.9375 C7.0625 17.2575 7.0625 18.5775 7.0625 19.9375 C6.0625 20.9375 6.0625 20.9375 3.25 21.25 C0.0625 20.9375 0.0625 20.9375 -2.25 19.375 C-4.39600268 16.27521835 -4.51844647 13.63913949 -4.9375 9.9375 C-5.5975 9.6075 -6.2575 9.2775 -6.9375 8.9375 C-6.58697365 5.78276281 -6.07230924 4.1141466 -4.125 1.5625 C-1.9375 -0.0625 -1.9375 -0.0625 0 0 Z " fill="#7D6F6A" transform="translate(234.9375,327.0625)"/>
<path d="M0 0 C0.9796875 -0.00257813 1.959375 -0.00515625 2.96875 -0.0078125 C5.5 0.125 5.5 0.125 7.5 1.125 C7.625 6.875 7.625 6.875 6.5 9.125 C3.53 8.63 3.53 8.63 0.5 8.125 C1.16 11.095 1.82 14.065 2.5 17.125 C-0.23905345 18.49452673 -2.47087332 18.25121361 -5.5 18.125 C-6.16 17.795 -6.82 17.465 -7.5 17.125 C-6.84 13.495 -6.18 9.865 -5.5 6.125 C-6.16 6.125 -6.82 6.125 -7.5 6.125 C-7.5 4.475 -7.5 2.825 -7.5 1.125 C-4.89080172 -0.17959914 -2.91057385 -0.0076594 0 0 Z " fill="#7C6E6A" transform="translate(374.5,329.875)"/>
<path d="M0 0 C1.98 0 3.96 0 6 0 C6 0.66 6 1.32 6 2 C8.475 2.99 8.475 2.99 11 4 C10.67 5.32 10.34 6.64 10 8 C8.68 8 7.36 8 6 8 C6 10.31 6 12.62 6 15 C7.65 15.33 9.3 15.66 11 16 C10.67 17.32 10.34 18.64 10 20 C6.50355037 20.31785906 4.602598 20.39644605 1.625 18.4375 C-0.54455002 15.18317497 -0.29451507 12.82869586 0 9 C-0.99 8.67 -1.98 8.34 -3 8 C-3 6.35 -3 4.7 -3 3 C-2.01 2.67 -1.02 2.34 0 2 C0 1.34 0 0.68 0 0 Z " fill="#7E706C" transform="translate(185,328)"/>
<path d="M0 0 C0 1.32 0 2.64 0 4 C-1.65 4.33 -3.3 4.66 -5 5 C-3.68 5.66 -2.36 6.32 -1 7 C-1 8.32 -1 9.64 -1 11 C-2.65 11.33 -4.3 11.66 -6 12 C-6 15.3 -6 18.6 -6 22 C-7.32 22 -8.64 22 -10 22 C-10.10957031 21.31292969 -10.21914063 20.62585938 -10.33203125 19.91796875 C-10.49058594 19.01691406 -10.64914062 18.11585938 -10.8125 17.1875 C-10.96332031 16.29417969 -11.11414063 15.40085937 -11.26953125 14.48046875 C-12.05395393 11.81678744 -12.88627799 10.74309678 -15 9 C-14.67 8.01 -14.34 7.02 -14 6 C-13.01 6 -12.02 6 -11 6 C-10.9175 5.21625 -10.835 4.4325 -10.75 3.625 C-10 1 -10 1 -8.3125 -0.375 C-5.28902419 -1.19215562 -3.02252556 -0.68693763 0 0 Z " fill="#7A6C68" transform="translate(304,326)"/>
<path d="M0 0 C1.48831242 0.00667405 2.97660807 0.01863442 4.46484375 0.03515625 C5.22345703 0.03966797 5.98207031 0.04417969 6.76367188 0.04882812 C8.64326246 0.06064945 10.52281274 0.07858547 12.40234375 0.09765625 C12.07234375 1.74765625 11.74234375 3.39765625 11.40234375 5.09765625 C9.75234375 5.09765625 8.10234375 5.09765625 6.40234375 5.09765625 C6.40234375 10.04765625 6.40234375 14.99765625 6.40234375 20.09765625 C4.75234375 20.42765625 3.10234375 20.75765625 1.40234375 21.09765625 C1.20729917 18.99417551 1.02155879 16.8898304 0.83984375 14.78515625 C0.68322266 13.02751953 0.68322266 13.02751953 0.5234375 11.234375 C0.40234375 8.09765625 0.40234375 8.09765625 1.40234375 5.09765625 C-0.24765625 5.09765625 -1.89765625 5.09765625 -3.59765625 5.09765625 C-4.16015625 3.16015625 -4.16015625 3.16015625 -4.59765625 1.09765625 C-3.59765625 0.09765625 -3.59765625 0.09765625 0 0 Z " fill="#786965" transform="translate(139.59765625,326.90234375)"/>
<path d="M0 0 C2.7892057 0.64366285 4.28210218 1.71501616 6.4375 3.5625 C6.7675 3.5625 7.0975 3.5625 7.4375 3.5625 C7.8622346 7.8947929 7.90798413 9.91212488 5.3125 13.5 C2.4375 15.5625 2.4375 15.5625 -0.625 16.125 C-4.24046049 15.43267778 -5.45475302 14.56198609 -7.5625 11.5625 C-8.125 9.1875 -8.125 9.1875 -7.5625 6.5625 C-3.77617061 0.8289155 -3.77617061 0.8289155 0 0 Z M-0.5625 3.5625 C-1.91868499 4.68784105 -1.91868499 4.68784105 -1.625 7.625 C-1.604375 8.594375 -1.58375 9.56375 -1.5625 10.5625 C-0.5725 10.5625 0.4175 10.5625 1.4375 10.5625 C1.4375 8.5825 1.4375 6.6025 1.4375 4.5625 C0.7775 4.2325 0.1175 3.9025 -0.5625 3.5625 Z " fill="#7F726E" transform="translate(358.5625,332.4375)"/>
<path d="M0 0 C2.97 0 5.94 0 9 0 C9 5.61 9 11.22 9 17 C10.65 17.33 12.3 17.66 14 18 C14 18.99 14 19.98 14 21 C7.56074766 22.3364486 7.56074766 22.3364486 5.28125 20.96875 C3.32361333 17.96067414 3.71513858 15.34996505 3.8125 11.8125 C3.83957031 10.54019531 3.86664063 9.26789063 3.89453125 7.95703125 C3.92933594 6.98121094 3.96414063 6.00539063 4 5 C2.68 4.67 1.36 4.34 0 4 C0 2.68 0 1.36 0 0 Z " fill="#7D6F6A" transform="translate(305,326)"/>
<path d="M0 0 C2 2 2 2 2.125 5.625 C2.08375 6.73875 2.0425 7.8525 2 9 C2.66 9 3.32 9 4 9 C4.33 10.65 4.66 12.3 5 14 C3.2300132 14.19532961 1.45895721 14.38098882 -0.3125 14.5625 C-1.29863281 14.66691406 -2.28476562 14.77132813 -3.30078125 14.87890625 C-6 15 -6 15 -9 14 C-9.36625971 9.48279689 -9.36625971 9.48279689 -7.625 7.1875 C-6 6 -6 6 -4 6 C-4.7763932 2.9254644 -4.7763932 2.9254644 -7 1 C-4.48718205 -0.25640898 -2.78302919 -0.20872719 0 0 Z M-4 8 C-4 8.99 -4 9.98 -4 11 C-3.34 11 -2.68 11 -2 11 C-1.67 10.01 -1.34 9.02 -1 8 C-1.99 8 -2.98 8 -4 8 Z " fill="#7B6D69" transform="translate(330,333)"/>
<path d="M0 0 C0.33 0.66 0.66 1.32 1 2 C1.66 1.01 2.32 0.02 3 -1 C5.475 -0.505 5.475 -0.505 8 0 C8 1.65 8 3.3 8 5 C7.34 4.34 6.68 3.68 6 3 C3.47740939 4.97420135 3.0070192 5.96745642 2.3125 9.1875 C2.1578125 10.5796875 2.1578125 10.5796875 2 12 C1.01 11.67 0.02 11.34 -1 11 C-1.144375 9.865625 -1.28875 8.73125 -1.4375 7.5625 C-1.61171478 4.19222799 -1.61171478 4.19222799 -3 3 C-4.66617115 2.95936168 -6.33388095 2.957279 -8 3 C-7.67 4.65 -7.34 6.3 -7 8 C-7.61875 8.433125 -8.2375 8.86625 -8.875 9.3125 C-11.2197245 10.99740483 -11.2197245 10.99740483 -13 14 C-13.07427838 10.65747276 -13.06546953 8.1964086 -12 5 C-11.65179959 3.33637583 -11.31595508 1.67004829 -11 0 C-6.88825414 -1.37058195 -4.26339405 -0.75640862 0 0 Z " fill="#948985" transform="translate(333,331)"/>
<path d="M0 0 C0.33 0.66 0.66 1.32 1 2 C2.65 2 4.3 2 6 2 C6 2.99 6 3.98 6 5 C6.99 5.33 7.98 5.66 9 6 C8.125 10.75 8.125 10.75 7 13 C4.03 12.67 1.06 12.34 -2 12 C-2.33 10.68 -2.66 9.36 -3 8 C-0.39417629 7.06934867 0.64198224 6.85082593 3.25 7.9375 C3.8275 8.288125 4.405 8.63875 5 9 C5 8.34 5 7.68 5 7 C2.69 6.34 0.38 5.68 -2 5 C-1.125 1.125 -1.125 1.125 0 0 Z " fill="#7F716D" transform="translate(170,335)"/>
<path d="M0 0 C1.9375 0.6875 1.9375 0.6875 2.9375 2.6875 C3.4325 2.171875 3.9275 1.65625 4.4375 1.125 C8.18464452 -1.0296081 10.74594613 -0.08095154 14.9375 0.6875 C15.5975 2.3375 16.2575 3.9875 16.9375 5.6875 C15.9475 5.6875 14.9575 5.6875 13.9375 5.6875 C13.2775 5.0275 12.6175 4.3675 11.9375 3.6875 C9.56625402 3.10261438 9.56625402 3.10261438 6.9375 3.6875 C4.12418622 6.08333651 4.12418622 6.08333651 1.9375 8.6875 C0.9475 8.3575 -0.0425 8.0275 -1.0625 7.6875 C-1.0625 6.3675 -1.0625 5.0475 -1.0625 3.6875 C-2.0525 3.3575 -3.0425 3.0275 -4.0625 2.6875 C-4.0625 2.0275 -4.0625 1.3675 -4.0625 0.6875 C-2.0625 -0.3125 -2.0625 -0.3125 0 0 Z " fill="#938784" transform="translate(349.0625,330.3125)"/>
<path d="M0 0 C0.69222656 0.08765625 1.38445312 0.1753125 2.09765625 0.265625 C3.9375 0.75 3.9375 0.75 5.9375 2.75 C6.33514263 4.73821313 6.67525349 6.73944339 6.9375 8.75 C5.9475 9.08 4.9575 9.41 3.9375 9.75 C3.2775 7.77 2.6175 5.79 1.9375 3.75 C0.6175 4.08 -0.7025 4.41 -2.0625 4.75 C-1.7325 5.74 -1.4025 6.73 -1.0625 7.75 C-2.238125 8.6471875 -2.238125 8.6471875 -3.4375 9.5625 C-6.20824323 11.66085249 -6.20824323 11.66085249 -8.0625 14.75 C-8.1875 11.875 -8.1875 11.875 -8.0625 8.75 C-7.4025 8.09 -6.7425 7.43 -6.0625 6.75 C-6.38291397 4.14719432 -6.38291397 4.14719432 -7.0625 1.75 C-3.88217735 -0.3702151 -3.51682601 -0.4995865 0 0 Z " fill="#8A7E7A" transform="translate(159.0625,330.25)"/>
<path d="M0 0 C8.58 0 17.16 0 26 0 C26.33 0.99 26.66 1.98 27 3 C17.43 3 7.86 3 -2 3 C-1.34 2.67 -0.68 2.34 0 2 C0 1.34 0 0.68 0 0 Z " fill="#756762" transform="translate(218,208)"/>
<path d="M0 0 C0 0.66 0 1.32 0 2 C-3.41065139 3.03974499 -6.52264842 3.11508506 -10.078125 3.09765625 C-11.23828125 3.09443359 -12.3984375 3.09121094 -13.59375 3.08789062 C-14.8003125 3.07951172 -16.006875 3.07113281 -17.25 3.0625 C-18.47203125 3.05798828 -19.6940625 3.05347656 -20.953125 3.04882812 C-23.96879946 3.03704815 -26.98437498 3.02059853 -30 3 C-30 4.32 -30 5.64 -30 7 C-30.99 7.33 -31.98 7.66 -33 8 C-33.125 5.625 -33.125 5.625 -33 3 C-30.39645637 0.39645637 -29.17592485 0.7001138 -25.546875 0.5859375 C-23.90525391 0.52792969 -23.90525391 0.52792969 -22.23046875 0.46875 C-21.08191406 0.4378125 -19.93335938 0.406875 -18.75 0.375 C-17.05037109 0.31699219 -17.05037109 0.31699219 -15.31640625 0.2578125 C-10.20840338 0.09014066 -5.11102025 -0.01805678 0 0 Z " fill="#786A66" transform="translate(303,244)"/>
<path d="M0 0 C5.28 0 10.56 0 16 0 C15.67 1.65 15.34 3.3 15 5 C13.35 5 11.7 5 10 5 C10 9.95 10 14.9 10 20 C8.35 20.33 6.7 20.66 5 21 C5.33 19.68 5.66 18.36 6 17 C6 17.66 6 18.32 6 19 C6.99 19 7.98 19 9 19 C9 13.72 9 8.44 9 3 C6.36 2.67 3.72 2.34 1 2 C0.67 2.66 0.34 3.32 0 4 C0 2.68 0 1.36 0 0 Z " fill="#7D6F6B" transform="translate(136,327)"/>
<path d="M0 0 C1.67542976 0.28604898 3.34385343 0.61781233 5 1 C5.33 2.32 5.66 3.64 6 5 C8.97 5.495 8.97 5.495 12 6 C12 7.32 12 8.64 12 10 C9.98177083 9.73958333 7.96354167 9.47916667 5.9453125 9.21875 C3.99501656 8.9627515 3.99501656 8.9627515 2 9 C1.67 10.32 1.34 11.64 1 13 C0.34 13 -0.32 13 -1 13 C-1.02686553 11.02090602 -1.04633375 9.04171029 -1.0625 7.0625 C-1.07410156 5.96035156 -1.08570313 4.85820312 -1.09765625 3.72265625 C-1 1 -1 1 0 0 Z " fill="#938884" transform="translate(245,325)"/>
<path d="M0 0 C5.81110024 0.43583252 9.27105446 2.82019179 14 6 C13.67 10.95 13.34 15.9 13 21 C12.01 21.33 11.02 21.66 10 22 C9.77422598 16.5814234 10.53329887 12.22512279 12 7 C11.13375 6.7525 10.2675 6.505 9.375 6.25 C5.80481983 4.92771105 3.05577189 3.25545068 0 1 C0 0.67 0 0.34 0 0 Z " fill="#766863" transform="translate(372,243)"/>
<path d="M0 0 C0.66 0.33 1.32 0.66 2 1 C0.499902 5.19659318 -1.99043855 6.4263785 -5.8125 8.5 C-9.87165113 10.71866646 -13.45918017 13.01550121 -17 16 C-17.33 15.01 -17.66 14.02 -18 13 C-14.84583218 9.53430943 -11.31570535 7.1754108 -7.3125 4.8125 C-3.43976706 2.68769729 -3.43976706 2.68769729 0 0 Z " fill="#776964" transform="translate(172,188)"/>
<path d="M0 0 C0.556875 0.268125 1.11375 0.53625 1.6875 0.8125 C1.6875 1.4725 1.6875 2.1325 1.6875 2.8125 C1.0996875 2.88210937 0.511875 2.95171875 -0.09375 3.0234375 C-3.15962512 4.11376633 -4.0264078 5.7502431 -5.8125 8.4375 C-6.41191406 9.3346875 -7.01132812 10.231875 -7.62890625 11.15625 C-9.63682991 14.32420381 -11.52161071 17.5172637 -13.3125 20.8125 C-13.9725 20.4825 -14.6325 20.1525 -15.3125 19.8125 C-13.81144492 13.95838517 -7.37341023 -0.59784407 0 0 Z " fill="#776964" transform="translate(413.3125,245.1875)"/>
<path d="M0 0 C2.48519147 1.12963249 4.76328526 2.46855725 7.0625 3.9375 C6.7325 5.5875 6.4025 7.2375 6.0625 8.9375 C5.0725 8.9375 4.0825 8.9375 3.0625 8.9375 C3.0625 7.9475 3.0625 6.9575 3.0625 5.9375 C2.0725 5.9375 1.0825 5.9375 0.0625 5.9375 C0.0625 4.9475 0.0625 3.9575 0.0625 2.9375 C-0.5975 2.9375 -1.2575 2.9375 -1.9375 2.9375 C-1.9375 3.9275 -1.9375 4.9175 -1.9375 5.9375 C-2.5975 5.9375 -3.2575 5.9375 -3.9375 5.9375 C-4.2675 7.2575 -4.5975 8.5775 -4.9375 9.9375 C-5.5975 9.6075 -6.2575 9.2775 -6.9375 8.9375 C-6.58697365 5.78276281 -6.07230924 4.1141466 -4.125 1.5625 C-1.9375 -0.0625 -1.9375 -0.0625 0 0 Z " fill="#978C89" transform="translate(234.9375,327.0625)"/>
<path d="M0 0 C4.91785714 1.36607143 4.91785714 1.36607143 6.375 3.9375 C6.5625 7.625 6.5625 7.625 6.375 10.9375 C5.385 10.6075 4.395 10.2775 3.375 9.9375 C2.1875 6.875 2.1875 6.875 1.375 3.9375 C-0.99874861 3.60324265 -0.99874861 3.60324265 -3.625 3.9375 C-5.26176257 5.8975281 -5.26176257 5.8975281 -6.625 7.9375 C-7.615 7.9375 -8.605 7.9375 -9.625 7.9375 C-9.30587403 4.95899096 -8.56332742 3.87038572 -6.5 1.625 C-3.625 -0.0625 -3.625 -0.0625 0 0 Z " fill="#948885" transform="translate(206.625,330.0625)"/>
<path d="M0 0 C1.98 0 3.96 0 6 0 C6 0.66 6 1.32 6 2 C8.475 2.99 8.475 2.99 11 4 C10.67 5.32 10.34 6.64 10 8 C9.01 8 8.02 8 7 8 C7 7.01 7 6.02 7 5 C6.01 5 5.02 5 4 5 C4 4.01 4 3.02 4 2 C3.34 2 2.68 2 2 2 C2 2.99 2 3.98 2 5 C1.34 5 0.68 5 0 5 C0 6.32 0 7.64 0 9 C-0.99 8.67 -1.98 8.34 -3 8 C-3 6.35 -3 4.7 -3 3 C-2.01 2.67 -1.02 2.34 0 2 C0 1.34 0 0.68 0 0 Z " fill="#9B918D" transform="translate(185,328)"/>
<path d="M0 0 C0.9796875 -0.00257813 1.959375 -0.00515625 2.96875 -0.0078125 C5.5 0.125 5.5 0.125 7.5 1.125 C7.17 2.775 6.84 4.425 6.5 6.125 C5.84 6.125 5.18 6.125 4.5 6.125 C4.5 5.135 4.5 4.145 4.5 3.125 C2.52 4.115 0.54 5.105 -1.5 6.125 C-2.49 5.465 -3.48 4.805 -4.5 4.125 C-4.83 5.115 -5.16 6.105 -5.5 7.125 C-6.16 6.795 -6.82 6.465 -7.5 6.125 C-7.5 4.475 -7.5 2.825 -7.5 1.125 C-4.89080172 -0.17959914 -2.91057385 -0.0076594 0 0 Z " fill="#897C78" transform="translate(374.5,329.875)"/>
<path d="M0 0 C-0.33 0.99 -0.66 1.98 -1 3 C-2.71004573 3.72348089 -4.42253808 4.44231465 -6.15234375 5.1171875 C-10.1533265 7.02886213 -12.59718237 10.39577356 -15 14 C-15.66 14 -16.32 14 -17 14 C-16.49074056 9.54397988 -15.21510967 7.13473193 -12 4 C-8.0865965 1.82038286 -4.52163789 0 0 0 Z " fill="#786A66" transform="translate(229,244)"/>
<path d="M0 0 C0.33 2.97 0.66 5.94 1 9 C2.65 9 4.3 9 6 9 C6 9.99 6 10.98 6 12 C2.46322336 12.32152515 0.6037896 12.4131192 -2.375 10.375 C-4.45245486 7.33871982 -4.54896129 5.60745994 -4 2 C-1 0 -1 0 0 0 Z " fill="#796B67" transform="translate(189,336)"/>
<path d="M0 0 C-1.52059907 3.88014936 -3.86078531 5.73906562 -7.125 8.25 C-8.03507813 8.95640625 -8.94515625 9.6628125 -9.8828125 10.390625 C-10.58148438 10.92171875 -11.28015625 11.4528125 -12 12 C-12.66 11.34 -13.32 10.68 -14 10 C-4.27777778 0 -4.27777778 0 0 0 Z " fill="#786A65" transform="translate(138,244)"/>
<path d="M0 0 C3.3125 0.875 3.3125 0.875 5.3125 2.875 C5.3125 4.195 5.3125 5.515 5.3125 6.875 C4.6525 6.875 3.9925 6.875 3.3125 6.875 C2.6525 5.885 1.9925 4.895 1.3125 3.875 C-1.10167872 3.29097867 -1.10167872 3.29097867 -3.6875 3.875 C-6.00127147 5.77084109 -6.00127147 5.77084109 -7.6875 7.875 C-8.0175 6.555 -8.3475 5.235 -8.6875 3.875 C-5.62672898 0.81422898 -4.42361413 -0.14995302 0 0 Z " fill="#8F8480" transform="translate(267.6875,330.125)"/>
<path d="M0 0 C0.33 1.65 0.66 3.3 1 5 C0.34 5 -0.32 5 -1 5 C-1.33 4.34 -1.66 3.68 -2 3 C-7.13725982 2.51510163 -7.13725982 2.51510163 -11.4375 5 C-11.953125 5.66 -12.46875 6.32 -13 7 C-13.3125 4.6875 -13.3125 4.6875 -13 2 C-8.81657945 -1.92195676 -5.23114257 -0.97529777 0 0 Z " fill="#968B87" transform="translate(180,331)"/>
<path d="M0 0 C0 0.66 0 1.32 0 2 C-0.99 2.66 -1.98 3.32 -3 4 C-2.67 5.32 -2.34 6.64 -2 8 C-2.61875 8.433125 -3.2375 8.86625 -3.875 9.3125 C-6.2197245 10.99740483 -6.2197245 10.99740483 -8 14 C-8.07427838 10.65747276 -8.06546953 8.1964086 -7 5 C-6.65179959 3.33637583 -6.31595508 1.67004829 -6 0 C-3 -1 -3 -1 0 0 Z " fill="#8D817D" transform="translate(328,331)"/>
<path d="M0 0 C0.66 0 1.32 0 2 0 C2.96070434 2.88211302 3.10581883 4.69850044 3.0625 7.6875 C3.05347656 8.49574219 3.04445313 9.30398438 3.03515625 10.13671875 C3.02355469 10.75160156 3.01195312 11.36648438 3 12 C1.68 12 0.36 12 -1 12 C-1.02687279 10.18757948 -1.04633715 8.37504767 -1.0625 6.5625 C-1.07410156 5.55316406 -1.08570313 4.54382813 -1.09765625 3.50390625 C-1 1 -1 1 0 0 Z " fill="#736661" transform="translate(254,336)"/>
<path d="M0 0 C0.33 0 0.66 0 1 0 C1.43497796 4.43677521 1.47502251 6.36663666 -1.25 10 C-4 12 -4 12 -6.25 11.9375 C-8 11 -8 11 -9 9 C-6.69 8.34 -4.38 7.68 -2 7 C-2 5.35 -2 3.7 -2 2 C-1.34 2 -0.68 2 0 2 C0 1.34 0 0.68 0 0 Z " fill="#7E716C" transform="translate(365,336)"/>
<path d="M0 0 C0.66 0 1.32 0 2 0 C2.49230769 6.4 2.49230769 6.4 0 9.4375 C-0.99 10.2109375 -0.99 10.2109375 -2 11 C-2.99 10.01 -3.98 9.02 -5 8 C-4.67 7.01 -4.34 6.02 -4 5 C-3.01 5 -2.02 5 -1 5 C-0.67 3.35 -0.34 1.7 0 0 Z " fill="#8B7F7B" transform="translate(294,327)"/>
<path d="M0 0 C7.75 0.75 7.75 0.75 10 3 C10.39764263 4.98821313 10.73775349 6.98944339 11 9 C10.01 9.33 9.02 9.66 8 10 C7.34 8.02 6.68 6.04 6 4 C3.03 3.505 3.03 3.505 0 3 C0 2.01 0 1.02 0 0 Z " fill="#968B87" transform="translate(155,330)"/>
<path d="M0 0 C0.33 3.3 0.66 6.6 1 10 C-1.97 10 -4.94 10 -8 10 C-8 9.67 -8 9.34 -8 9 C-6.35 9 -4.7 9 -3 9 C-3 7.35 -3 5.7 -3 4 C-3.66 3.67 -4.32 3.34 -5 3 C-2.25 0 -2.25 0 0 0 Z " fill="#746561" transform="translate(163,336)"/>
<path d="M0 0 C-3.28466137 3.67882073 -6.66360908 5.75150101 -11 8 C-11.66 8 -12.32 8 -13 8 C-11.60632076 4.62772951 -10.15724701 3.09506287 -7.0625 1.1875 C-6.37285156 0.74792969 -5.68320313 0.30835938 -4.97265625 -0.14453125 C-3 -1 -3 -1 0 0 Z " fill="#766863" transform="translate(249,132)"/>
<path d="M0 0 C0.33 0.66 0.66 1.32 1 2 C-0.1875 5.5625 -0.1875 5.5625 -2 9 C-4.1875 9.9375 -4.1875 9.9375 -6 10 C-6.33 8.68 -6.66 7.36 -7 6 C-6.34 6 -5.68 6 -5 6 C-5 5.34 -5 4.68 -5 4 C-4.34 4 -3.68 4 -3 4 C-2.67 3.01 -2.34 2.02 -2 1 C-1.34 0.67 -0.68 0.34 0 0 Z " fill="#7C6E6A" transform="translate(348,338)"/>
<path d="M0 0 C0.66 1.32 1.32 2.64 2 4 C0.68 4 -0.64 4 -2 4 C-2.70125 4.20625 -3.4025 4.4125 -4.125 4.625 C-4.74375 4.74875 -5.3625 4.8725 -6 5 C-6.66 4.34 -7.32 3.68 -8 3 C-5.53387212 -0.1151089 -3.89156016 -0.31553191 0 0 Z " fill="#817470" transform="translate(208,333)"/>
<path d="M0 0 C3.37462715 0.54723683 5.08235 1.0549 8 3 C7.67 4.65 7.34 6.3 7 8 C4.6875 8.625 4.6875 8.625 2 9 C1.01 8.34 0.02 7.68 -1 7 C0.98 6.67 2.96 6.34 5 6 C5.33 5.01 5.66 4.02 6 3 C4.02 2.34 2.04 1.68 0 1 C0 0.67 0 0.34 0 0 Z " fill="#73645F" transform="translate(171,338)"/>
<path d="M0 0 C-1.55603771 3.81936528 -3.95604931 6.26044438 -7 9 C-7.66 9 -8.32 9 -9 9 C-9 9.66 -9 10.32 -9 11 C-9.66 11 -10.32 11 -11 11 C-9.60249952 7.84164893 -7.94801766 5.67727175 -5.5 3.25 C-4.8915625 2.63640625 -4.283125 2.0228125 -3.65625 1.390625 C-2 0 -2 0 0 0 Z " fill="#766863" transform="translate(191,173)"/>
<path d="M0 0 C2.475 0.99 2.475 0.99 5 2 C4.67 2.66 4.34 3.32 4 4 C3.34 3.67 2.68 3.34 2 3 C2 3.66 2 4.32 2 5 C-0.31 5.66 -2.62 6.32 -5 7 C-4.67 6.01 -4.34 5.02 -4 4 C-3.34 4 -2.68 4 -2 4 C-1.34 2.68 -0.68 1.36 0 0 Z " fill="#80736E" transform="translate(264,333)"/>
<path d="M0 0 C3.63 0 7.26 0 11 0 C10.67 0.99 10.34 1.98 10 3 C6.7 3 3.4 3 0 3 C0 2.01 0 1.02 0 0 Z " fill="#867975" transform="translate(230,297)"/>
<path d="M0 0 C0 0.66 0 1.32 0 2 C-3.63 2.66 -7.26 3.32 -11 4 C-10.67 3.01 -10.34 2.02 -10 1 C-8.22265625 0.234375 -8.22265625 0.234375 -6.0625 -0.25 C-5.35222656 -0.42015625 -4.64195312 -0.5903125 -3.91015625 -0.765625 C-2 -1 -2 -1 0 0 Z " fill="#786A65" transform="translate(275,105)"/>
<path d="M0 0 C0.99 0 1.98 0 3 0 C3.33 2.31 3.66 4.62 4 7 C6.31 7.66 8.62 8.32 11 9 C11 9.33 11 9.66 11 10 C5.71987821 9.74032188 5.71987821 9.74032188 3 9 C0.19210114 5.75336695 0 4.3527029 0 0 Z " fill="#7F716D" transform="translate(197,338)"/>
<path d="M0 0 C0.66 0 1.32 0 2 0 C2 1.65 2 3.3 2 5 C1.34 5 0.68 5 0 5 C-0.33 6.32 -0.66 7.64 -1 9 C-1.66 8.67 -2.32 8.34 -3 8 C-2.45276317 4.62537285 -1.9451 2.91765 0 0 Z " fill="#8E827E" transform="translate(231,328)"/>
<path d="M0 0 C0.33 0 0.66 0 1 0 C0.51020408 6.48979592 0.51020408 6.48979592 -1.9375 8.9375 C-4 10 -4 10 -6 10 C-4.34784004 6.42032008 -2.26875648 3.22017048 0 0 Z " fill="#756763" transform="translate(261,156)"/>
<path d="M0 0 C6.625 0.75 6.625 0.75 10 3 C10 3.66 10 4.32 10 5 C6.7 4.01 3.4 3.02 0 2 C0 1.34 0 0.68 0 0 Z " fill="#7B6E69" transform="translate(177,244)"/>
<path d="M0 0 C1.65 0 3.3 0 5 0 C4.67 0.99 4.34 1.98 4 3 C3.01 3.33 2.02 3.66 1 4 C1 5.32 1 6.64 1 8 C0.01 8.33 -0.98 8.66 -2 9 C-2.20140476 5.37471432 -1.85776765 3.13498292 0 0 Z " fill="#847773" transform="translate(249,333)"/>
<path d="M0 0 C5.94 1.485 5.94 1.485 12 3 C10.02 3.99 10.02 3.99 8 5 C8 4.34 8 3.68 8 3 C6.88625 3.309375 6.88625 3.309375 5.75 3.625 C2.67669159 4.04408751 1.57213134 3.61949011 -1 2 C-0.67 1.34 -0.34 0.68 0 0 Z " fill="#7A6C68" transform="translate(221,295)"/>
<path d="M0 0 C1.48206495 0.254496 2.96068615 0.52911762 4.4375 0.8125 C5.67306641 1.03873047 5.67306641 1.03873047 6.93359375 1.26953125 C7.95646484 1.63111328 7.95646484 1.63111328 9 2 C9.33 2.99 9.66 3.98 10 5 C8.51793505 4.745504 7.03931385 4.47088238 5.5625 4.1875 C4.73878906 4.03667969 3.91507813 3.88585937 3.06640625 3.73046875 C2.38449219 3.48941406 1.70257813 3.24835938 1 3 C0.67 2.01 0.34 1.02 0 0 Z " fill="#766864" transform="translate(241,244)"/>
<path d="M0 0 C0 1.65 0 3.3 0 5 C-1.32 5.33 -2.64 5.66 -4 6 C-4.33 5.01 -4.66 4.02 -5 3 C-5.66 2.34 -6.32 1.68 -7 1 C-4.53721199 -0.231394 -2.7204945 -0.07159196 0 0 Z " fill="#827571" transform="translate(330,333)"/>
<path d="M0 0 C0.33 0.66 0.66 1.32 1 2 C2.64363134 2.72159424 4.31050386 3.39351421 6 4 C5.67 5.32 5.34 6.64 5 8 C4.01 8 3.02 8 2 8 C3 5 3 5 4 4 C2.68 4 1.36 4 0 4 C0 2.68 0 1.36 0 0 Z " fill="#8E837F" transform="translate(190,328)"/>
<path d="M0 0 C0.66 0 1.32 0 2 0 C1.67 0.66 1.34 1.32 1 2 C0.67 1.34 0.34 0.68 0 0 Z M-1 3 C-1 3.66 -1 4.32 -1 5 C-3.31 5.66 -5.62 6.32 -8 7 C-7.67 5.68 -7.34 4.36 -7 3 C-3.25 1.875 -3.25 1.875 -1 3 Z " fill="#796B66" transform="translate(423,269)"/>
<path d="M0 0 C0 0.66 0 1.32 0 2 C-4.455 3.485 -4.455 3.485 -9 5 C-8 2 -8 2 -6.1875 0.8125 C-4 0 -4 0 0 0 Z " fill="#7B6D69" transform="translate(164,244)"/>
<path d="M0 0 C0.99 0.33 1.98 0.66 3 1 C2.01 2.485 2.01 2.485 1 4 C3.64 4.33 6.28 4.66 9 5 C9 5.33 9 5.66 9 6 C6.03 5.67 3.06 5.34 0 5 C-0.33 3.68 -0.66 2.36 -1 1 C-0.67 0.67 -0.34 0.34 0 0 Z " fill="#847873" transform="translate(168,342)"/>
<path d="M0 0 C1.67542976 0.28604898 3.34385343 0.61781233 5 1 C5 2.65 5 4.3 5 6 C4.01 5.34 3.02 4.68 2 4 C1.34 4 0.68 4 0 4 C-0.33 3.01 -0.66 2.02 -1 1 C-0.67 0.67 -0.34 0.34 0 0 Z " fill="#A09693" transform="translate(336,330)"/>
<path d="M0 0 C0 0.66 0 1.32 0 2 C-4.29 1.67 -8.58 1.34 -13 1 C-13 0.67 -13 0.34 -13 0 C-11.58456585 -0.19658808 -10.16755969 -0.38187546 -8.75 -0.5625 C-7.96109375 -0.66691406 -7.1721875 -0.77132813 -6.359375 -0.87890625 C-3.99467126 -1.00027349 -2.2488963 -0.69633257 0 0 Z " fill="#7D6F6A" transform="translate(297,298)"/>
<path d="M0 0 C1.98 0.66 3.96 1.32 6 2 C6 2.99 6 3.98 6 5 C4.35 5 2.7 5 1 5 C0.67 3.35 0.34 1.7 0 0 Z " fill="#766763" transform="translate(311,343)"/>
<path d="M0 0 C0.66 1.32 1.32 2.64 2 4 C3.65 4 5.3 4 7 4 C7 4.66 7 5.32 7 6 C4.69 5.67 2.38 5.34 0 5 C-0.5625 3.0625 -0.5625 3.0625 -1 1 C-0.67 0.67 -0.34 0.34 0 0 Z " fill="#71625D" transform="translate(188,341)"/>
<path d="M0 0 C-0.33 1.65 -0.66 3.3 -1 5 C-1.99 4.67 -2.98 4.34 -4 4 C-3.67 3.67 -3.34 3.34 -3 3 C-5.31 2.67 -7.62 2.34 -10 2 C-10 1.67 -10 1.34 -10 1 C-2.25 0 -2.25 0 0 0 Z " fill="#857874" transform="translate(152,327)"/>
<path d="M0 0 C0 0.66 0 1.32 0 2 C-2.97 2.66 -5.94 3.32 -9 4 C-8.67 3.01 -8.34 2.02 -8 1 C-5.23735711 0.40267181 -2.83967231 0 0 0 Z " fill="#796B66" transform="translate(330,245)"/>
<path d="M0 0 C0 0.66 0 1.32 0 2 C-3.3 2.33 -6.6 2.66 -10 3 C-9 1 -9 1 -7.25 0.375 C-4.79549443 -0.03408426 -2.4840589 -0.06900164 0 0 Z " fill="#7B6D69" transform="translate(454,244)"/>
<path d="M0 0 C0.33 0.66 0.66 1.32 1 2 C-0.75 2.6875 -0.75 2.6875 -3 3 C-5.25 1.5625 -5.25 1.5625 -7 0 C-4.30234372 -1.34882814 -2.84835666 -0.80338265 0 0 Z " fill="#81746F" transform="translate(162,334)"/>
<path d="M0 0 C1.98 0.66 3.96 1.32 6 2 C6 3.32 6 4.64 6 6 C5.01 5.67 4.02 5.34 3 5 C3.33 4.34 3.66 3.68 4 3 C2.68 3 1.36 3 0 3 C0 2.01 0 1.02 0 0 Z " fill="#81736F" transform="translate(297,331)"/>
<path d="M0 0 C0.99 0.33 1.98 0.66 3 1 C-1.625 5 -1.625 5 -5 5 C-3.35 3.35 -1.7 1.7 0 0 Z " fill="#786A66" transform="translate(323,171)"/>
<path d="M0 0 C2 1 2 1 2 1 Z M0 2 C-3.625 5 -3.625 5 -7 5 C-7 4.01 -7 3.02 -7 2 C-3.98968256 1.06576355 -3.13349732 0.95550089 0 2 Z " fill="#796B67" transform="translate(171,298)"/>
<path d="M0 0 C0.33 0 0.66 0 1 0 C1.125 2.875 1.125 2.875 1 6 C-1 8 -1 8 -4.125 8.125 C-5.548125 8.063125 -5.548125 8.063125 -7 8 C-4.66785852 6.79371992 -2.50357861 5.8345262 0 5 C0 3.35 0 1.7 0 0 Z " fill="#736560" transform="translate(363,338)"/>
<path d="M0 0 C2.97 0.495 2.97 0.495 6 1 C5.67 1.66 5.34 2.32 5 3 C3.02 3 1.04 3 -1 3 C-0.67 2.01 -0.34 1.02 0 0 Z " fill="#80736E" transform="translate(443,297)"/>
</svg>
